<?xml version="1.0" encoding="UTF-8"?>
<svg id="Calque_1" data-name="Calque 1" xmlns="http://www.w3.org/2000/svg" viewBox="0 0 13.63 15.66">
  <defs>
    <style>
      .cls-1 {
        fill: #e52421;
      }

      .cls-1, .cls-2 {
        stroke-width: 0px;
      }

      .cls-2 {
        fill: #fff;
      }
    </style>
  </defs>
  <g>
    <path class="cls-2" d="m12.61,9.38c-.63,0-1.26,0-1.89,0-.18,0-.25.05-.25.24.01.55,0,1.11,0,1.66,0,.18.06.25.25.25.55,0,1.09,0,1.64,0,.17,0,.24.05.23.23-.01.2,0,.39,0,.59,0,.16-.06.22-.22.22-.53,0-1.05,0-1.58,0q-.31,0-.31.32c0,.18,0,.36,0,.55,0,.13-.05.18-.18.18-.21,0-.42,0-.63,0-.18,0-.24.07-.23.24,0,.2,0,.41,0,.61,0,.13-.05.19-.19.19-.22,0-.45,0-.67,0-.15,0-.2.06-.2.2,0,.2,0,.41,0,.61.01.18-.06.24-.23.23-.41,0-.81,0-1.22,0-1.53,0-3.06,0-4.58,0-.26,0-.27,0-.27-.28,0-.2,0-.39,0-.59,0-.12-.05-.18-.18-.17-.22,0-.45,0-.67,0-.14,0-.21-.06-.2-.2,0-.18,0-.36,0-.55,0-.28-.01-.29-.28-.29-.18,0-.36,0-.55,0-.17,0-.22-.06-.22-.22,0-.59,0-1.18,0-1.77,0-1.34,0-2.68,0-4.02,0-.27,0-.27.27-.27,3.31,0,6.62,0,9.92,0q.29,0,.29.29c0,.17,0,.34,0,.5-.01.18.07.23.24.23.54,0,1.08,0,1.62,0,.19,0,.26.06.26.26,0,.27,0,.53.01.8h0Zm-10.51.02c-.31,0-.61-.01-.92-.02-.13,0-.15.09-.15.2,0,.57,0,1.15,0,1.72,0,.15.07.22.21.21.2,0,.39-.01.59,0,.2.01.27-.05.27-.26-.01-.62,0-1.25,0-1.87.28,0,.56-.01.84,0,.15,0,.22-.04.22-.2,0-.22,0-.43,0-.65,0-.13-.05-.2-.19-.2-.24,0-.47,0-.71,0-.11,0-.17.05-.17.16,0,.3.01.6.02.9Z"/>
    <path class="cls-2" d="m12.61,9.39c.28,0,.56,0,.84,0,.14,0,.18.05.18.18,0,.59,0,1.18,0,1.76,0,.13-.05.19-.19.18-.22-.01-.45-.01-.67,0-.13,0-.18-.05-.17-.17,0-.65,0-1.3.01-1.95,0,0,0,0,0,0Z"/>
  </g>
  <g>
    <path class="cls-1" d="m6.29,4.12c0,.3,0,.6,0,.9,0,.15-.06.22-.21.22-.22,0-.43,0-.65,0-.13,0-.19-.05-.19-.19,0-.24,0-.49,0-.73,0-.13.06-.17.18-.17.29,0,.59,0,.88-.01,0,0,0,0,0,0Z"/>
    <path class="cls-1" d="m3.15,4.16c0-.3,0-.6,0-.9,0-.11.04-.17.16-.16.23,0,.46,0,.69,0,.12,0,.18.04.18.17,0,.6,0,1.19,0,1.79,0,.15-.07.19-.21.19-.22,0-.43,0-.65,0-.13,0-.18.05-.17.17,0,.21,0,.42,0,.63,0,.16-.05.24-.21.23-.22,0-.43,0-.65,0-.14,0-.2-.06-.19-.2,0-.22,0-.43,0-.65,0-.12.04-.18.17-.17.24,0,.48,0,.71,0,.14,0,.18-.05.18-.18,0-.3,0-.6,0-.9h0Z"/>
    <path class="cls-1" d="m6.3,4.13c0-1.04,0-2.08,0-3.12h0c.27,0,.54.02.82.01.15,0,.21.05.21.21,0,.89,0,1.79,0,2.68,0,.16-.05.23-.22.22-.27-.01-.54-.01-.82-.02h0Z"/>
    <path class="cls-1" d="m9.44,5.21c0-.61.01-1.23,0-1.84,0-.21.06-.29.27-.27.19.02.38,0,.57,0,.15,0,.2.06.2.2,0,.59,0,1.17,0,1.76,0,.06-.08.17-.12.18-.31,0-.61-.01-.92-.02h0Z"/>
    <path class="cls-1" d="m9.44,5.2c0,.28,0,.56,0,.84,0,.16-.05.23-.22.23-.21,0-.42,0-.63,0-.14,0-.21-.04-.2-.19,0-.22,0-.43,0-.65,0-.13.05-.19.19-.18.23,0,.46,0,.69,0,.06,0,.12-.02.17-.04,0,0,0,0,0,0Z"/>
    <path class="cls-1" d="m6.31,1.01c-.3,0-.6,0-.9.01-.11,0-.17-.05-.16-.16,0-.23,0-.46,0-.69,0-.13.06-.17.18-.17.22,0,.45,0,.67,0,.14,0,.2.06.2.2,0,.27,0,.54,0,.82,0,0,0,0,0,0Z"/>
    <path class="cls-1" d="m2.63,3.09q-.54,0-.54-.54c0-.48,0-.49.49-.48.65,0,.56-.06.56.55,0,.48,0,.48-.48.48-.01,0-.03,0-.04,0Z"/>
    <path class="cls-1" d="m8.91,3.09q-.52,0-.52-.52t.51-.51c.62,0,.53-.04.53.52,0,.51,0,.51-.51.51,0,0-.01,0-.02,0Z"/>
  </g>
</svg>