<?xml version="1.0" encoding="UTF-8"?>
<svg id="Calque_1" data-name="Calque 1" xmlns="http://www.w3.org/2000/svg" viewBox="0 0 12.4 15.4">
  <defs>
    <style>
      .cls-1 {
        fill: #e52421;
      }

      .cls-1, .cls-2 {
        stroke-width: 0px;
      }

      .cls-2 {
        fill: #fff;
      }
    </style>
  </defs>
  <path class="cls-2" d="m12.4,4.95v10.45h-.87v-.79h-.89c0-.25-.01-.47,0-.7.01-.11-.03-.14-.14-.14-.24,0-.49,0-.74,0v.82h-.89v.8h-1.78v-1.61h-1.77v1.61h-1.78v-.79h-.89v-.83h-.79c-.08,0-.1.03-.1.1v.72h-.87v.8h-.89V4.96h.88v-2.48h.88v-.83h.89v-.83h1.77v-.82h3.55v.81h1.78v.84h.89v.82h.88v2.48h.88Z"/>
  <g>
    <rect class="cls-1" x="1.88" y="4.84" width="3.29" height="2.1"/>
    <rect class="cls-1" x="7.22" y="4.84" width="3.29" height="2.1"/>
  </g>
</svg>