<?xml version="1.0" encoding="UTF-8"?>
<svg id="Calque_1" data-name="Calque 1" xmlns="http://www.w3.org/2000/svg" viewBox="0 0 14.02 15.46">
  <defs>
    <style>
      .cls-1 {
        fill: #e52421;
      }

      .cls-1, .cls-2 {
        stroke-width: 0px;
      }

      .cls-2 {
        fill: #fff;
      }
    </style>
  </defs>
  <path class="cls-2" d="m12.67,4.13v-1.37q0-1.28-1.26-1.43s-.07-.06-.13-.1c-.02-.4-.04-.82-.06-1.23h-1.37v4.25h1.3c.03.47.05.89.08,1.34.45.03.85.05,1.3.07v6.9h-1.3v-5.52c-.49-.03-.92-.06-1.36-.09-.03-.48-.05-.9-.08-1.34-.48-.02-.9-.05-1.4-.07V1.4c-.49-.03-.89-.05-1.34-.07-.02-.46-.04-.88-.06-1.33H2.78c-.02.47-.04.89-.07,1.33-.48.03-.9.06-1.38.09v12.55c-.49.04-.91.06-1.33.09v1.4h9.79v-1.4c-.47-.03-.89-.05-1.33-.08v-6.87h1.36v5.52c.48.03.88.05,1.31.07.04.47.08.9.13,1.4.48-.02,1.05.1,1.24-.11.24-.28.19-.83.26-1.3.42,0,.82-.03,1.26-.05V4.19c-.46-.02-.88-.04-1.35-.06Zm-5.76,1.42h-2.65c-.48,0-.95,0-1.42,0,.01-.48.01-.96.02-1.44v-1.27c0-.45-.01-.9-.01-1.34.46-.01.93-.02,1.39-.03h2.67v4.07Z"/>
  <path class="cls-1" d="m6.91,1.48v4.07h-2.65c-.48,0-.95,0-1.42,0,.01-.48.01-.96.02-1.44v-1.27c0-.45-.01-.9-.01-1.34.46-.01.93-.02,1.39-.03h2.67Z"/>
</svg>